<svg aria-hidden="true" style="position: absolute; width: 0; height: 0; overflow: hidden;" version="1.1" xmlns="http://www.w3.org/2000/svg" xmlns:xlink="http://www.w3.org/1999/xlink">
<defs>
<symbol id="icon-close_menu" viewBox="0 0 32 32">
<path d="M23.734 10.304l-1.504-1.504-5.963 5.962-5.962-5.962-1.504 1.504 5.962 5.962-5.962 5.963 1.504 1.504 5.962-5.963 5.963 5.963 1.504-1.504-5.963-5.963 5.963-5.962z"></path>
</symbol>
<symbol id="icon-cross" viewBox="0 0 32 32">
<path d="M6.4 11.734v-2.134h19.2v2.134h-19.2zM6.4 17.066h19.2v-2.133h-19.2v2.133zM6.4 22.4h19.2v-2.134h-19.2v2.134z"></path>
</symbol>
<symbol id="icon-emailF" viewBox="0 0 43 32">
<path fill="#fff" style="fill: var(--color1, #fff)" d="M36.915 0h-31.772c-2.839 0.002-5.14 2.302-5.143 5.141v21.718c0 2.835 2.306 5.141 5.141 5.141h31.765c2.837 0 5.141-2.306 5.141-5.141v-21.709c0-0.003 0-0.006 0-0.009 0-2.836-2.296-5.136-5.131-5.141h-0.001zM39.709 26.859c-0.002 1.542-1.251 2.791-2.792 2.793h-31.775c-1.542-0.001-2.792-1.251-2.794-2.793v-21.706c0.001-1.543 1.251-2.794 2.795-2.795h31.764c1.542 0.002 2.791 1.252 2.793 2.793v21.707h0.009z"></path>
<path fill="#fff" style="fill: var(--color1, #fff)" d="M26.518 15.73l10.284-9.222c0.479-0.435 0.523-1.173 0.087-1.662-0.217-0.238-0.528-0.387-0.874-0.387-0.303 0-0.579 0.114-0.789 0.302l0.001-0.001-14.181 12.729-2.767-2.471c-0.009-0.009-0.017-0.017-0.017-0.026-0.058-0.058-0.121-0.112-0.187-0.162l-0.005-0.003-11.258-10.075c-0.207-0.186-0.482-0.3-0.783-0.3-0.349 0-0.663 0.152-0.878 0.394l-0.001 0.001c-0.186 0.207-0.299 0.481-0.299 0.783 0 0.349 0.152 0.662 0.394 0.877l0.001 0.001 10.405 9.301-10.363 9.7c-0.215 0.214-0.348 0.51-0.348 0.837 0 0.652 0.528 1.18 1.18 1.18 0.299 0 0.572-0.111 0.78-0.295l-0.001 0.001 10.517-9.84 2.854 2.549c0.206 0.183 0.479 0.295 0.778 0.295 0.304 0 0.58-0.115 0.789-0.305l2.931-2.626 10.458 9.935c0.226 0.218 0.523 0.322 0.81 0.322 0.001 0 0.002 0 0.003 0 0.648 0 1.173-0.525 1.173-1.173 0-0.336-0.141-0.639-0.367-0.853l-0.001-0.001-10.327-9.806z"></path>
</symbol>
<symbol id="icon-telF" viewBox="0 0 19 32">
<path fill="#fff" style="fill: var(--color1, #fff)" d="M16.428 0h-14.267c-1.192 0.004-2.157 0.969-2.161 2.161v27.677c0 1.189 0.973 2.162 2.161 2.162h14.267c1.188 0 2.161-0.971 2.161-2.161v-27.678c-0.004-1.192-0.969-2.157-2.161-2.161h-0zM7.012 1.557h4.565c0.145 0 0.262 0.117 0.262 0.262s-0.117 0.262-0.262 0.262v0h-4.565c-0.145 0-0.262-0.117-0.262-0.262s0.117-0.262 0.262-0.262v0zM9.295 30.919c-0.597 0-1.081-0.484-1.081-1.081s0.484-1.081 1.081-1.081v0c0.597 0 1.081 0.484 1.081 1.081s-0.484 1.081-1.081 1.081v0zM17.085 28h-15.581v-24.573h15.581v24.573z"></path>
</symbol>
<symbol id="icon-location" viewBox="0 0 32 32">
<path fill="#005fa3" style="fill: var(--color2, #005fa3)" d="M15.977 0c-6.474 0.007-11.72 5.253-11.727 11.726v0.001c0 2.972 1.871 7.168 5.564 12.476 1.85 2.64 3.643 4.924 5.548 7.108l-0.085-0.1 0.7 0.789 0.7-0.791c0.113-0.124 2.767-3.127 5.464-7.006 3.691-5.308 5.564-9.506 5.564-12.476-0.008-6.474-5.253-11.72-11.726-11.727h-0.001zM20.617 23.119c-1.615 2.298-3.138 4.264-4.743 6.159l0.103-0.124c-1.497-1.766-3.016-3.727-4.448-5.753l-0.179-0.266c-3.422-4.917-5.229-8.862-5.229-11.407 0.006-5.441 4.415-9.85 9.855-9.856h0.001c5.442 0.005 9.851 4.415 9.858 9.855v0.001c0 2.541-1.805 6.483-5.218 11.392z"></path>
<path fill="#005fa3" style="fill: var(--color2, #005fa3)" d="M15.977 4.335c-3.821 0.004-6.917 3.101-6.921 6.921v0c0.004 3.821 3.101 6.917 6.921 6.921h0c3.822-0.003 6.919-3.1 6.923-6.921v-0c-0.004-3.822-3.102-6.918-6.923-6.921h-0zM15.977 16.307c-2.788-0.003-5.047-2.262-5.050-5.050v-0c0.003-2.788 2.262-5.047 5.050-5.050h0c2.789 0.002 5.049 2.262 5.052 5.050v0c-0.003 2.789-2.264 5.048-5.052 5.050h-0z"></path>
</symbol>
<symbol id="icon-email" viewBox="0 0 43 32">
<path fill="#005fa3" style="fill: var(--color2, #005fa3)" d="M36.915 0h-31.772c-2.839 0.002-5.14 2.303-5.143 5.142v21.715c0.002 2.839 2.303 5.14 5.142 5.143h31.765c2.839-0.002 5.14-2.303 5.143-5.142v-21.707c0-0.003 0-0.006 0-0.009 0-2.837-2.298-5.138-5.135-5.141h-0zM39.708 26.857c0 1.54-1.252 2.793-2.792 2.793h-31.774c-1.542-0.001-2.792-1.251-2.793-2.793v-21.707c0-1.54 1.254-2.792 2.793-2.792h31.765c1.54 0 2.792 1.252 2.792 2.792v21.707h0.009z"></path>
<path fill="#005fa3" style="fill: var(--color2, #005fa3)" d="M26.519 15.731l10.283-9.224c0.239-0.217 0.388-0.528 0.388-0.875 0-0.302-0.114-0.578-0.3-0.787l0.001 0.001c-0.217-0.239-0.529-0.389-0.876-0.389-0.303 0-0.579 0.114-0.788 0.301l0.001-0.001-14.184 12.728-2.767-2.47c-0.009-0.009-0.019-0.019-0.019-0.026-0.058-0.058-0.12-0.113-0.186-0.162l-0.004-0.003-11.256-10.074c-0.207-0.187-0.482-0.301-0.784-0.301-0.349 0-0.662 0.152-0.877 0.394l-0.001 0.001c-0.186 0.207-0.3 0.482-0.3 0.783 0 0.349 0.153 0.663 0.395 0.878l0.001 0.001 10.406 9.301-10.362 9.702c-0.23 0.216-0.374 0.522-0.374 0.861 0 0.651 0.528 1.179 1.179 1.179 0.311 0 0.595-0.121 0.805-0.318l-0.001 0.001 10.519-9.839 2.854 2.549c0.206 0.183 0.479 0.294 0.778 0.294 0.304 0 0.581-0.115 0.789-0.305l-0.001 0.001 2.933-2.628 10.458 9.937c0.21 0.2 0.496 0.323 0.809 0.323 0.649 0 1.176-0.526 1.176-1.176 0-0.335-0.14-0.638-0.366-0.852l-0.001-0-10.328-9.807z"></path>
</symbol>
<symbol id="icon-clock" viewBox="0 0 32 32">
<path fill="#005fa3" style="fill: var(--color2, #005fa3)" d="M16 0c-8.837 0-16 7.163-16 16s7.163 16 16 16c8.837 0 16-7.163 16-16v0c-0.011-8.832-7.168-15.989-15.999-16h-0.001zM16.687 30.594v-2.816c0-0.379-0.308-0.687-0.687-0.687s-0.687 0.308-0.687 0.687v0 2.816c-7.526-0.371-13.535-6.381-13.904-13.873l-0.001-0.034h2.814c0.379 0 0.687-0.308 0.687-0.687s-0.308-0.687-0.687-0.687v0h-2.814c0.371-7.526 6.379-13.534 13.871-13.904l0.034-0.001v2.814c0 0.379 0.308 0.687 0.687 0.687s0.687-0.308 0.687-0.687v0-2.814c7.526 0.37 13.536 6.379 13.905 13.871l0.001 0.034h-2.816c-0.379 0-0.687 0.308-0.687 0.687s0.308 0.687 0.687 0.687v0h2.822c-0.37 7.529-6.383 13.54-13.879 13.905l-0.034 0.001z"></path>
<path fill="#005fa3" style="fill: var(--color2, #005fa3)" d="M23.241 22.383l-6.554-6.664v-6.929c0-0.379-0.308-0.687-0.687-0.687s-0.687 0.308-0.687 0.687v0 7.209c0 0.181 0.073 0.352 0.2 0.48l6.748 6.865c0.122 0.113 0.286 0.182 0.466 0.182 0.379 0 0.687-0.308 0.687-0.687 0-0.175-0.065-0.335-0.173-0.456l0.001 0.001z"></path>
</symbol>
<symbol id="icon-tel" viewBox="0 0 18 32">
<path fill="#005fa3" style="fill: var(--color2, #005fa3)" d="M15.71 0h-13.643c-1.138 0-2.068 0.93-2.068 2.068v26.466c0 1.138 0.93 2.068 2.068 2.068h13.643c1.138 0 2.068-0.928 2.068-2.066v-26.469c0-1.136-0.93-2.066-2.068-2.066zM6.706 1.49h4.366c0.138 0 0.251 0.112 0.251 0.251s-0.112 0.251-0.251 0.251v0h-4.366c-0.138 0-0.251-0.112-0.251-0.251s0.112-0.251 0.251-0.251v0zM8.889 29.57c-0.571 0-1.034-0.463-1.034-1.034s0.463-1.034 1.034-1.034v0c0.571 0 1.034 0.463 1.034 1.034s-0.463 1.034-1.034 1.034v0zM16.338 26.779h-14.898v-23.504h14.898v23.502z"></path>
</symbol>
<symbol id="icon-back-second" viewBox="0 0 32 32">
<path fill="#fff" style="fill: var(--color1, #fff)" d="M22.263 16l-14.451 14.453c-0.164 0.163-0.266 0.39-0.266 0.64s0.102 0.477 0.266 0.64l0 0c0.163 0.164 0.39 0.266 0.64 0.266s0.476-0.102 0.64-0.266l15.095-15.096c0.164-0.163 0.266-0.39 0.266-0.64s-0.102-0.476-0.266-0.64l-15.095-15.089c-0.161-0.167-0.387-0.271-0.637-0.271s-0.476 0.104-0.637 0.271l-0 0c-0.164 0.163-0.266 0.39-0.266 0.64s0.102 0.477 0.266 0.64l14.445 14.451z"></path>
</symbol>
<symbol id="icon-back-one" viewBox="0 0 32 32">
<path fill="#fff" style="fill: var(--color1, #fff)" d="M9.737 16l14.451-14.453c0.164-0.163 0.266-0.39 0.266-0.64s-0.102-0.476-0.266-0.64l-0-0c-0.163-0.164-0.39-0.266-0.64-0.266s-0.477 0.102-0.64 0.266l-15.095 15.096c-0.164 0.164-0.266 0.39-0.266 0.64s0.102 0.477 0.266 0.64l15.096 15.089c0.161 0.167 0.387 0.27 0.637 0.27s0.476-0.104 0.637-0.27l0-0c0.164-0.163 0.266-0.39 0.266-0.64s-0.102-0.477-0.266-0.64l-14.445-14.451z"></path>
</symbol>
<symbol id="icon-Logo-clients" viewBox="0 0 63 32">
<path d="M0 0h62.769v32h-62.769z"></path>
</symbol>
</defs>
</svg>
